<?xml version="1.0" encoding="utf-8"?>
<!-- Generator: Adobe Illustrator 17.1.0, SVG Export Plug-In . SVG Version: 6.00 Build 0)  -->
<!DOCTYPE svg PUBLIC "-//W3C//DTD SVG 1.1//EN" "http://www.w3.org/Graphics/SVG/1.1/DTD/svg11.dtd">
<svg version="1.1" id="Слой_1" xmlns="http://www.w3.org/2000/svg" xmlns:xlink="http://www.w3.org/1999/xlink" x="0px" y="0px"
	 viewBox="0 0 814.6 162.9" enable-background="new 0 0 814.6 162.9" xml:space="preserve">
<g>
	<g>
		<path fill="#FFFFFF" d="M62.7,40.6c4.1,2,7,5,9.3,8.5V38.2h23.3v75.5c0,7-1.5,13.4-4.1,18.9c-2.6,5.5-7,10.2-12.5,13.4
			c-5.5,3.2-12.8,5-21,5c-11.4,0-20.4-2.6-27.4-7.9c-7-5.2-11.1-12.5-12-21.6h23c0.6,2.9,2.3,5.2,5.2,7c2.6,1.7,6.1,2.6,9.9,2.6
			c4.7,0,8.7-1.5,11.4-4.1c2.9-2.6,4.4-7.3,4.4-13.1v-10.8c-2.3,3.5-5.2,6.4-9.3,8.7c-4.1,2.3-8.7,3.2-14,3.2c-6.1,0-12-1.7-16.9-5
			c-5-3.2-9-7.9-12-13.7c-2.9-5.8-4.4-12.8-4.4-20.7c0-7.9,1.5-14.6,4.4-20.4s7-10.5,12-13.7c5-3.2,10.8-4.7,16.9-4.7
			C54,37.4,58.6,38.2,62.7,40.6z M67.1,62.4c-3.2-3.2-7-5-11.7-5s-8.5,1.7-11.7,5c-3.2,3.2-5,7.9-5,13.7c0,5.8,1.7,10.5,5,13.7
			c3.2,3.5,7,5,11.7,5s8.5-1.7,11.7-5c3.2-3.2,5-7.9,5-13.7C72,70.3,70.3,65.9,67.1,62.4z"/>
	</g>
	<g>
		<path fill="#FFFFFF" d="M130.6,16.7v97.7h-23.3V16.7H130.6z"/>
	</g>
	<g>
		<path fill="#FFFFFF" d="M157.5,110.5c-5.8-3.2-10.5-7.6-14-13.7c-3.5-5.8-5-12.8-5-20.7s1.7-14.6,5.2-20.7
			c3.5-5.8,8.2-10.5,14-13.7c5.8-3.2,12.5-4.7,20.1-4.7c7.3,0,14,1.5,20.1,4.7c5.8,3.2,10.8,7.6,14,13.7c3.5,5.8,5.2,12.8,5.2,20.7
			c0,7.9-1.7,14.6-5.2,20.7c-3.5,5.8-8.2,10.5-14.3,13.7c-6.1,3.2-12.8,4.7-20.1,4.7C170,115.2,163.3,113.7,157.5,110.5z
			 M188.9,90.1c3.2-3.2,4.7-7.9,4.7-14c0-6.1-1.5-10.8-4.7-14c-2.9-3.2-6.7-5-11.1-5c-4.7,0-8.2,1.7-11.4,5c-2.9,3.2-4.4,7.9-4.4,14
			c0,6.1,1.5,10.8,4.4,14c2.9,3.2,6.7,5,11.1,5C181.9,95.1,185.7,93.3,188.9,90.1z"/>
	</g>
	<g>
		<path fill="#FFFFFF" d="M258.3,40.6c4.1-2,8.7-3.2,14-3.2c6.1,0,12,1.5,16.9,4.7c5,3.2,9,7.6,12,13.7c2.9,5.8,4.4,12.8,4.4,20.4
			c0,7.9-1.5,14.6-4.4,20.7c-2.9,5.8-7,10.5-12,13.7c-5,3.2-10.8,5-16.9,5c-5.2,0-9.9-1.2-14-3.2c-4.1-2-7-5-9.3-8.5v10.5h-23.3
			V16.7H249v32.6C251,45.5,254.2,42.6,258.3,40.6z M277.3,62.4c-3.2-3.2-7.3-5-12-5c-4.7,0-8.5,1.7-11.7,5c-3.2,3.2-5,7.9-5,13.7
			c0,5.8,1.7,10.5,5,13.7c3.2,3.2,7,5,11.7,5c4.7,0,8.5-1.7,12-5c3.2-3.5,5-7.9,5-13.7C281.9,70.3,280.5,65.6,277.3,62.4z"/>
	</g>
	<g>
		<path fill="#FFFFFF" d="M317.5,55.7c2.9-5.8,7-10.5,12-13.7c5-3.2,10.8-4.7,16.9-4.7c5.2,0,9.9,1.2,14,3.2c4.1,2,7,5,9.3,8.5V38.2
			H393V114h-23.3v-10.8c-2.3,3.5-5.5,6.4-9.3,8.5c-4.1,2-8.7,3.2-14,3.2c-6.1,0-11.7-1.7-16.9-5c-5-3.2-9-7.9-12-13.7
			c-2.9-5.8-4.4-12.8-4.4-20.7C313.1,68.3,314.6,61.5,317.5,55.7z M365,62.4c-3.2-3.2-7-5-11.7-5s-8.5,1.7-11.7,5
			c-3.2,3.2-5,7.9-5,13.7c0,5.8,1.7,10.5,5,13.7c3.2,3.5,7,5,11.7,5s8.5-1.7,11.7-5c3.2-3.2,5-7.9,5-13.7
			C370,70.3,368.2,65.9,365,62.4z"/>
	</g>
	<g>
		<path fill="#FFFFFF" d="M429.7,16.7v97.7h-23.3V16.7H429.7z"/>
	</g>
	<g>
		<path fill="#FFFFFF" d="M490.6,38.2V114h-23.3V38.2H490.6z"/>
	</g>
	<g>
		<path fill="#FFFFFF" d="M623.9,46.1c5.5,5.8,8.5,13.7,8.5,23.9v44.3h-23V72.9c0-5-1.2-8.7-3.8-11.4c-2.6-2.6-6.1-4.1-10.8-4.1
			c-4.7,0-8.2,1.5-10.8,4.1c-2.6,2.6-3.8,6.4-3.8,11.4V114h-23V72.9c0-5-1.2-8.7-3.8-11.4c-2.6-2.6-6.1-4.1-10.8-4.1
			c-4.7,0-8.2,1.5-10.8,4.1c-2.6,2.6-3.8,6.4-3.8,11.4V114h-23.3V38.2H528v9.6c2.3-3.2,5.5-5.5,9.3-7.6c3.8-1.7,8.2-2.9,12.8-2.9
			c5.8,0,10.8,1.2,15.2,3.8c4.4,2.3,7.9,5.8,10.5,10.5c2.6-4.1,6.1-7.6,10.8-10.2c4.7-2.6,9.3-4.1,14.9-4.1
			C610.7,37.6,618,40.3,623.9,46.1z"/>
	</g>
	<g>
		<path fill="#FFFFFF" d="M716.3,81.7h-52.5c0.3,4.7,1.7,8.2,4.7,10.8c2.6,2.6,5.8,3.8,9.9,3.8c5.8,0,9.9-2.3,12-7.3h24.8
			c-1.2,5-3.5,9.3-7,13.4c-3.2,4.1-7.6,7-12.5,9.3c-5,2.3-10.5,3.5-16.6,3.5c-7.3,0-14-1.5-19.8-4.7c-5.8-3.2-10.2-7.6-13.7-13.7
			c-3.2-5.8-5-12.8-5-20.7s1.7-14.9,5-20.7c3.2-5.8,7.6-10.5,13.4-13.7c5.8-3.2,12.5-4.7,19.8-4.7c7.3,0,14,1.5,19.5,4.7
			c5.8,3.2,10.2,7.6,13.4,13.1c3.2,5.8,5,12.2,5,19.8C716.6,77.3,716.3,79.3,716.3,81.7z M692.7,68.8c0-4.1-1.5-7.3-4.1-9.6
			s-6.1-3.5-10.2-3.5c-3.8,0-7.3,1.2-9.9,3.5s-4.4,5.5-5,9.6H692.7z"/>
	</g>
	<g>
		<path fill="#FFFFFF" d="M770.2,114l-14.6-21l-12.2,21h-25.1l25.1-38.8l-25.7-37h25.9l14.6,21l12.2-21h25.1l-25.4,38.2l25.9,37.6
			H770.2z"/>
	</g>
</g>
</svg>
