<?xml version="1.0" encoding="utf-8"?>
<!-- Generator: Adobe Illustrator 17.1.0, SVG Export Plug-In . SVG Version: 6.00 Build 0)  -->
<!DOCTYPE svg PUBLIC "-//W3C//DTD SVG 1.1//EN" "http://www.w3.org/Graphics/SVG/1.1/DTD/svg11.dtd">
<svg version="1.1" id="Capa_1" xmlns="http://www.w3.org/2000/svg" xmlns:xlink="http://www.w3.org/1999/xlink" x="0px" y="0px"
	 viewBox="0 305.8 1280 186" enable-background="new 0 305.8 1280 186" xml:space="preserve">
<g>
	<g>
		<g>
			<g>
				<path fill="#FFFFFF" d="M308.2,413.8h-46.1c0.5,4.1,1.5,7.2,4.1,9.7c2.6,2,5.1,3.1,8.7,3.1c5.1,0,8.7-2,10.8-6.7h21.5
					c-1,4.6-3.1,8.2-6.1,11.8c-3.1,3.6-6.7,6.1-10.8,8.2c-4.6,2-9.2,3.1-14.8,3.1c-6.7,0-12.3-1.5-17.4-4.1s-9.2-6.7-11.8-11.8
					c-3.1-5.1-4.1-11.3-4.1-17.9c0-7.2,1.5-12.8,4.1-17.9c3.1-5.1,6.7-9.2,11.8-11.8s10.8-4.1,17.4-4.1s12.3,1.5,17.4,4.1
					c5.1,2.6,8.7,6.7,11.8,11.8s4.1,10.8,4.1,17.4C308.7,409.7,308.7,411.8,308.2,413.8z M287.7,402.6c0-3.6-1-6.1-3.6-8.2
					s-5.1-3.1-8.7-3.1s-6.1,1-8.7,3.1s-3.6,4.6-4.6,8.7h25.6V402.6z"/>
			</g>
			<g>
				<path fill="#FFFFFF" d="M355.3,425.1v17.4h-10.2c-7.2,0-13.3-2-17.4-5.6s-6.1-9.7-6.1-17.9v-26.6h-8.2v-16.9h8.2v-18.9H342v18.9
					h13.3v16.9H342v27.1c0,2,0.5,3.6,1.5,4.1c1,1,2.6,1.5,4.6,1.5C348.2,425.1,355.3,425.1,355.3,425.1z"/>
			</g>
			<g>
				<path fill="#FFFFFF" d="M470.5,382.6c5.1,5.1,7.2,11.8,7.2,21v38.9h-20.5v-36.4c0-4.1-1-7.7-3.6-9.7c-2-2.6-5.6-3.6-9.2-3.6
					c-4.1,0-7.2,1-9.2,3.6s-3.6,5.6-3.6,9.7v36.4h-20.5v-36.4c0-4.1-1-7.7-3.6-9.7c-2-2.6-5.6-3.6-9.2-3.6c-4.1,0-7.2,1-9.2,3.6
					s-3.6,5.6-3.6,9.7v36.4h-20.5v-66.6h20.5v8.2c2-2.6,4.6-5.1,8.2-6.7c3.6-1.5,7.2-2.6,11.3-2.6c5.1,0,9.7,1,13.3,3.1
					c4.1,2,7.2,5.1,9.2,9.2c2.6-3.6,5.6-6.7,9.2-8.7c4.1-2.6,8.2-3.6,12.8-3.6C459.3,374.9,465.4,377.5,470.5,382.6z"/>
			</g>
			<g>
				<path fill="#FFFFFF" d="M549.9,377.5c3.6,2,6.1,4.6,8.2,7.7v-9.2h20.5v66.6c0,6.1-1,11.8-3.6,16.4c-2.6,5.1-6.1,8.7-11.3,11.8
					s-11.3,4.6-18.4,4.6c-9.7,0-17.9-2.6-24.1-7.2s-9.7-10.8-10.2-18.9h20c0.5,2.6,2,4.6,4.6,6.1c2.6,1.5,5.1,2,8.7,2
					c4.1,0,7.7-1,10.2-3.6s3.6-6.1,3.6-11.8v-9.2c-2,3.1-4.6,5.6-8.2,7.7s-7.7,3.1-12.3,3.1c-5.6,0-10.2-1.5-14.8-4.1
					c-4.6-3.1-8.2-6.7-10.8-12.3c-2.6-5.1-4.1-11.3-4.1-17.9c0-6.7,1.5-12.8,4.1-17.9c2.6-5.1,6.1-9.2,10.8-11.8s9.2-4.1,14.8-4.1
					C542.2,374.9,546.3,375.9,549.9,377.5z M554,396.9c-3.1-3.1-6.1-4.6-10.2-4.6s-7.7,1.5-10.2,4.6c-3.1,3.1-4.1,6.7-4.1,11.8
					s1.5,9.2,4.1,12.3c3.1,3.1,6.1,4.6,10.2,4.6s7.7-1.5,10.2-4.6c3.1-3.1,4.1-7.2,4.1-12.3C558.1,404.1,556.5,400,554,396.9z"/>
			</g>
			<g>
				<path fill="#FFFFFF" d="M609.3,356.5V442h-20.5v-85.5H609.3z"/>
			</g>
			<g>
				<path fill="#FFFFFF" d="M633.3,438.9c-5.1-2.6-9.2-6.7-12.3-11.8c-3.1-5.1-4.6-11.3-4.6-17.9c0-6.7,1.5-12.8,4.6-17.9
					c3.1-5.1,7.2-9.2,12.3-11.8s11.3-4.1,17.4-4.1c6.7,0,12.3,1.5,17.4,4.1s9.2,6.7,12.3,11.8c3.1,5.1,4.6,11.3,4.6,17.9
					c0,6.7-1.5,12.8-4.6,17.9c-3.1,5.1-7.2,9.2-12.3,11.8s-11.3,4.1-17.9,4.1C644.1,443.5,638.5,442,633.3,438.9z M660.5,421.5
					c2.6-3.1,4.1-7.2,4.1-12.3s-1.5-9.2-4.1-12.3c-2.6-3.1-6.1-4.1-9.7-4.1c-4.1,0-7.2,1.5-9.7,4.1c-2.6,3.1-4.1,7.2-4.1,12.3
					s1.5,9.2,4.1,12.3c2.6,3.1,5.6,4.1,9.7,4.1C654.8,425.6,657.9,424.1,660.5,421.5z"/>
			</g>
			<g>
				<path fill="#FFFFFF" d="M721.9,377.5c3.6-2,7.7-3.1,12.3-3.1c5.6,0,10.2,1.5,14.8,4.1s8.2,6.7,10.8,11.8
					c2.6,5.1,4.1,11.3,4.1,17.9c0,6.7-1.5,12.8-4.1,17.9c-2.6,5.1-6.1,9.2-10.8,12.3c-4.6,3.1-9.2,4.1-14.8,4.1
					c-4.6,0-8.7-1-12.3-2.6c-3.6-2-6.1-4.6-8.2-7.7v9.2h-20.5v-85h20.5v28.7C715.3,382.1,718.3,379.5,721.9,377.5z M738.3,396.9
					c-3.1-3.1-6.1-4.6-10.2-4.6s-7.7,1.5-10.2,4.6c-3.1,3.1-4.1,7.2-4.1,12.3s1.5,9.2,4.1,12.3c3.1,3.1,6.1,4.6,10.2,4.6
					s7.7-1.5,10.2-4.6c3.1-3.1,4.1-7.2,4.1-12.3C742.4,403.6,741.4,400,738.3,396.9z"/>
			</g>
			<g>
				<path fill="#FFFFFF" d="M773.6,390.8c2.6-5.1,6.1-9.2,10.8-11.8c4.6-2.6,9.2-4.1,14.8-4.1c4.6,0,8.7,1,12.3,3.1
					c3.6,2,6.1,4.6,8.2,7.7v-9.2h20.5V443h-20.5v-9.2c-2,3.1-4.6,5.6-8.2,7.7c-3.6,2-7.7,3.1-12.3,3.1c-5.6,0-10.2-1.5-14.8-4.1
					c-4.6-3.1-8.2-6.7-10.8-12.3c-2.6-5.1-4.1-11.3-4.1-17.9C770,402,771.1,395.9,773.6,390.8z M815.6,396.9
					c-3.1-3.1-6.1-4.6-10.2-4.6s-7.7,1.5-10.2,4.6c-3.1,3.1-4.1,6.7-4.1,11.8s1.5,9.2,4.1,12.3c3.1,3.1,6.1,4.6,10.2,4.6
					s7.7-1.5,10.2-4.6c3.1-3.1,4.1-7.2,4.1-12.3C819.7,404.1,818.2,400,815.6,396.9z"/>
			</g>
			<g>
				<path fill="#FFFFFF" d="M872.4,356.5V442H852v-85.5H872.4z"/>
			</g>
			<g>
				<path fill="#FFFFFF" d="M925.7,375.9v66.6h-20.5v-66.6H925.7z"/>
			</g>
			<g>
				<path fill="#FFFFFF" d="M1042.4,382.6c5.1,5.1,7.2,11.8,7.2,21v38.9h-20.5v-36.4c0-4.1-1-7.7-3.6-9.7c-2-2.6-5.6-3.6-9.2-3.6
					c-4.1,0-7.2,1-9.2,3.6c-2,2.6-3.6,5.6-3.6,9.7v36.4H983v-36.4c0-4.1-1-7.7-3.6-9.7c-2-2.6-5.6-3.6-9.2-3.6c-4.1,0-7.2,1-9.2,3.6
					c-2,2.6-3.6,5.6-3.6,9.7v36.4H937v-66.6h20.5v8.2c2-2.6,4.6-5.1,8.2-6.7c3.6-1.5,7.2-2.6,11.3-2.6c5.1,0,9.7,1,13.3,3.1
					c4.1,2,7.2,5.1,9.2,9.2c2.6-3.6,5.6-6.7,9.2-8.7c4.1-2.6,8.2-3.6,12.8-3.6C1031.2,374.9,1037.8,377.5,1042.4,382.6z"/>
			</g>
			<g>
				<path fill="#FFFFFF" d="M1123.8,413.8h-46.1c0.5,4.1,1.5,7.2,4.1,9.7c2.6,2,5.1,3.1,8.7,3.1c5.1,0,8.7-2,10.8-6.7h21.5
					c-1,4.6-3.1,8.2-6.1,11.8c-3.1,3.6-6.7,6.1-10.8,8.2c-4.6,2-9.2,3.1-14.8,3.1c-6.7,0-12.3-1.5-17.4-4.1s-9.2-6.7-11.8-11.8
					c-3.1-5.1-4.1-11.3-4.1-17.9c0-7.2,1.5-12.8,4.1-17.9c3.1-5.1,6.7-9.2,11.8-11.8s10.8-4.1,17.4-4.1s12.3,1.5,17.4,4.1
					s8.7,6.7,11.8,11.8s4.1,10.8,4.1,17.4C1124.4,409.7,1123.8,411.8,1123.8,413.8z M1103.4,402.6c0-3.6-1-6.1-3.6-8.2
					c-2.6-2-5.1-3.1-8.7-3.1s-6.1,1-8.7,3.1c-2.6,2-3.6,4.6-4.6,8.7h25.6V402.6z"/>
			</g>
			<g>
				<path fill="#FFFFFF" d="M1171.5,442.5l-12.8-18.4l-10.8,18.4h-22l22-33.8l-22.5-32.8h23l12.8,18.4l10.8-18.4h22l-22.5,33.3
					l23,33.3H1171.5z"/>
			</g>
		</g>
	</g>
	<g>
		<rect x="127" y="356.5" fill="#FFFFFF" width="12.3" height="85.5"/>
	</g>
	<g>
		<rect x="106.5" y="356.5" fill="#FFFFFF" width="12.3" height="85.5"/>
	</g>
	<g>
		<rect x="85.5" y="356.5" fill="#FFFFFF" width="12.3" height="85.5"/>
	</g>
	<g>
		<rect x="209.4" y="356.5" fill="#FFFFFF" width="12.3" height="85.5"/>
	</g>
	<g>
		<rect x="188.9" y="356.5" fill="#FFFFFF" width="12.3" height="85.5"/>
	</g>
	<g>
		<rect x="168.4" y="356.5" fill="#FFFFFF" width="12.3" height="85.5"/>
	</g>
	<g>
		<rect x="147.5" y="356.5" fill="#FFFFFF" width="12.3" height="85.5"/>
	</g>
</g>
</svg>
