<svg width="1440" height="343" viewBox="0 0 1440 340" fill="none" xmlns="http://www.w3.org/2000/svg">
<path fill-rule="evenodd" clip-rule="evenodd" d="M0 190.458L34 203.684C69 216.028 137 241.599 206 216.028C274 190.458 343 114.627 411 108.455C480 101.401 549 164.887 617 178.113C686 190.458 754 152.542 823 171.941C891 190.458 960 267.17 1029 291.859C1097 317.429 1166 291.859 1234 235.427C1303 178.113 1367 132 1378 108.455L1440 0V343H1406C1371 343 1303 343 1234 343C1166 343 1097 343 1029 343C960 343 891 343 823 343C754 343 686 343 617 343C549 343 480 343 411 343C343 343 274 343 206 343C137 343 69 343 34 343H0V190.458Z" fill="#010612"/>
</svg>
