<?xml version="1.0" encoding="utf-8"?>
<!-- Generator: Adobe Illustrator 17.1.0, SVG Export Plug-In . SVG Version: 6.00 Build 0)  -->
<!DOCTYPE svg PUBLIC "-//W3C//DTD SVG 1.1//EN" "http://www.w3.org/Graphics/SVG/1.1/DTD/svg11.dtd">
<svg version="1.1" id="Layer_1" xmlns="http://www.w3.org/2000/svg" xmlns:xlink="http://www.w3.org/1999/xlink" x="0px" y="0px"
	 viewBox="0 0 1280 800" enable-background="new 0 0 1280 800" xml:space="preserve">
<path fill="#7DF9FF" d="M988.6,389.8l-57.4-53.7v-0.5h-0.5L919,324.7c-15-14.1-34.8-22-55.5-21.8H519.9l-13.6-53.4
	c-12-47.4-54.7-80.6-103.7-80.6c-7.6,0-13.7,6.1-13.7,13.7v196.8c0,20.4,5.3,40.2,15.3,57.9c28,48.7,79.8,78.8,136,78.9H611
	l-41.6,73.7c-2.5,4.3-2.3,9.4,0.1,13.7c2.5,4.2,7,6.9,11.9,6.9h53c48.3-0.1,93.7-23.3,122.1-62.5c0.4-0.5,0.7-1.1,1.1-1.7l8.5-16.4
	h168c1.1,0,2.2,0,3.3,0c32.8-1.1,60.4-21,71.9-51.9C1021.1,447.1,1012.9,412.1,988.6,389.8z M919.8,363.2l29,27.1h-84.5
	c-7.5,0-13.5-6-13.5-13.5s6-13.5,13.5-13.5h55.6L919.8,363.2L919.8,363.2z M733.4,532.8c-23.2,31.5-60,50.2-99,50.2H605l56.8-100.9
	h97.8L733.4,532.8z M983.2,468.2c-6,16-21.5,33.3-47,34c-0.7,0-1.6,0-2.3,0H780.1l5.9-11.4c1.7-2.9,2.3-6.4,2.5-14
	c0.2-8.7-0.5-11.9-2-14.7c-2.3-4.7-7.2-7.7-12.5-7.7H653.6c-5,0-9.6,2.7-12,7l-15.3,27.1H540c-46.3-0.1-89-24.8-111.9-65
	c-7.7-13.5-11.8-28.7-11.8-44.2V197.7c30.8,5.4,55.5,28.3,63.2,58.7l16.2,63.7c1.6,6.1,7.1,10.4,13.4,10.4h354.4
	c8,0,15.8,1.7,23.1,5.2h-22.3c-22.7,0-41.1,18.4-41.1,41.1s18.4,41.1,41.1,41.1h112.6C989,434.6,988.5,454.2,983.2,468.2z
	 M743.9,365.6h-191c-7.6,0-13.7,6.1-13.7,13.7s6.1,13.7,13.7,13.7h191c7.6,0,13.7-6.1,13.7-13.7
	C757.7,371.9,751.5,365.6,743.9,365.6z M310.6,245.6c-7.6,0-13.7,6.1-13.7,13.7S303,273,310.6,273h24.5c7.6,0,13.7-6.1,13.7-13.7
	s-6.1-13.7-13.7-13.7L310.6,245.6L310.6,245.6z M350.4,333.7h-72.1c-7.6,0-13.7,6.1-13.7,13.7s6.1,13.7,13.7,13.7h72.1
	c7.6,0,13.7-6.1,13.7-13.7C364.2,340,358,333.7,350.4,333.7z M339.6,422h-35.2c-7.6,0-13.7,6.1-13.7,13.7s6.1,13.7,13.7,13.7h35.2
	c7.6,0,13.7-6.1,13.7-13.7C353.5,428.1,347.2,422,339.6,422z"/>
</svg>
