<?xml version="1.0" encoding="utf-8"?>
<!-- Generator: Adobe Illustrator 17.1.0, SVG Export Plug-In . SVG Version: 6.00 Build 0)  -->
<!DOCTYPE svg PUBLIC "-//W3C//DTD SVG 1.1//EN" "http://www.w3.org/Graphics/SVG/1.1/DTD/svg11.dtd">
<svg version="1.1" id="Icons" xmlns="http://www.w3.org/2000/svg" xmlns:xlink="http://www.w3.org/1999/xlink" x="0px" y="0px"
	 viewBox="0 0 1280 800" enable-background="new 0 0 1280 800" xml:space="preserve">
<path fill="none" stroke="#7DF9FF" stroke-width="35" stroke-linecap="round" stroke-linejoin="round" stroke-miterlimit="10" d="
	M640,600L640,600c-70,0-125-55-125-125v-75c0-67.5,55-125,125-125l0,0c67.5,0,125,55,125,125v75C765,545,710,600,640,600z"/>
<line fill="none" stroke="#7DF9FF" stroke-width="35" stroke-linecap="round" stroke-linejoin="round" stroke-miterlimit="10" x1="590" y1="400" x2="690" y2="400"/>
<line fill="none" stroke="#7DF9FF" stroke-width="35" stroke-linecap="round" stroke-linejoin="round" stroke-miterlimit="10" x1="640" y1="175" x2="640" y2="275"/>
<line fill="none" stroke="#7DF9FF" stroke-width="35" stroke-linecap="round" stroke-linejoin="round" stroke-miterlimit="10" x1="740" y1="325" x2="815" y2="325"/>
<line fill="none" stroke="#7DF9FF" stroke-width="35" stroke-linecap="round" stroke-linejoin="round" stroke-miterlimit="10" x1="465" y1="325" x2="540" y2="325"/>
<polyline fill="none" stroke="#7DF9FF" stroke-width="35" stroke-linecap="round" stroke-linejoin="round" stroke-miterlimit="10" points="
	265,375 315,425 515,425 "/>
<polyline fill="none" stroke="#7DF9FF" stroke-width="35" stroke-linecap="round" stroke-linejoin="round" stroke-miterlimit="10" points="
	1015,375 965,425 765,425 "/>
<circle fill="none" stroke="#7DF9FF" stroke-width="35" stroke-linecap="round" stroke-linejoin="round" stroke-miterlimit="10" cx="365" cy="475" r="50"/>
<circle fill="none" stroke="#7DF9FF" stroke-width="35" stroke-linecap="round" stroke-linejoin="round" stroke-miterlimit="10" cx="915" cy="475" r="50"/>
</svg>
