<?xml version="1.0" encoding="utf-8"?>
<!-- Generator: Adobe Illustrator 17.1.0, SVG Export Plug-In . SVG Version: 6.00 Build 0)  -->
<!DOCTYPE svg PUBLIC "-//W3C//DTD SVG 1.1//EN" "http://www.w3.org/Graphics/SVG/1.1/DTD/svg11.dtd">
<svg version="1.1" id="Layer_1" xmlns="http://www.w3.org/2000/svg" xmlns:xlink="http://www.w3.org/1999/xlink" x="0px" y="0px"
	 viewBox="0 0 1280 800" enable-background="new 0 0 1280 800" xml:space="preserve">
<g>
	<path fill="#7DF9FF" d="M467.2,424H358.4c-17.1,0-31.5-13.9-31.5-31.5V283.7c0-17.1,13.9-31.5,31.5-31.5h109.3
		c17.1,0,31.5,13.9,31.5,31.5v109.3C498.7,410.1,484.8,424,467.2,424z M358.4,278.9c-2.7,0-4.8,2.1-4.8,4.8v109.3
		c0,2.7,2.1,4.8,4.8,4.8h109.3c2.7,0,4.8-2.1,4.8-4.8V283.7c0-2.7-2.1-4.8-4.8-4.8H358.4z"/>
	<path fill="#7DF9FF" d="M803.2,291.2H679.5c-7.5,0-13.3-5.9-13.3-13.3v-60.3c0-7.5,5.9-13.3,13.3-13.3h124.3
		c7.5,0,13.3,5.9,13.3,13.3v60.3C816.5,284.8,810.7,291.2,803.2,291.2z M692.8,264.5h97.6v-33.6h-97.6V264.5z"/>
	<path fill="#7DF9FF" d="M741.3,352.5H611.2c-7.5,0-13.3-5.9-13.3-13.3v-61.3c0-7.5,5.9-13.3,13.3-13.3h130.1
		c7.5,0,13.3,5.9,13.3,13.3v61.3C754.7,346.7,748.8,352.5,741.3,352.5z M624.5,325.9H728v-34.7H624.5V325.9z"/>
	<path fill="#7DF9FF" d="M865.1,352H741.3c-7.5,0-13.3-5.9-13.3-13.3v-60.8c0-7.5,5.9-13.3,13.3-13.3h123.7
		c7.5,0,13.3,5.9,13.3,13.3v61.3C878.4,346.1,872.5,352,865.1,352z M754.7,325.3h97.1v-34.7h-97.1V325.3z"/>
	<path fill="#7DF9FF" d="M676.3,424H564.8c-7.5,0-13.3-5.9-13.3-13.3V344c0-7.5,5.9-13.3,13.3-13.3h111.5c7.5,0,13.3,5.9,13.3,13.3
		v66.7C689.6,418.1,683.7,424,676.3,424z M578.1,397.3h84.8v-40h-84.8V397.3z"/>
	<path fill="#7DF9FF" d="M917.9,400.5H803.2c-7.5,0-13.3-5.9-13.3-13.3V344c0-7.5,5.9-13.3,13.3-13.3h114.7
		c7.5,0,13.3,5.9,13.3,13.3v43.2C931.2,394.7,924.8,400.5,917.9,400.5z M816.5,373.9h88v-16.5h-88V373.9z"/>
	<path fill="#7DF9FF" d="M838.9,585.1H412.8c-4.8,0-9.1-2.7-11.7-6.4l-85.3-144c-4.8-7.5-4.8-17.1,0-24.5s12.3-12.3,21.3-12.3h405.9
		l30.4-20.8c2.1-1.6,4.8-2.1,7.5-2.1h202.1c4.8,0,9.6,2.7,11.7,6.9s2.1,9.6-0.5,13.9L883.7,562.1
		C873.6,576.5,857.1,585.1,838.9,585.1z M420.3,558.4h418.7c9.1,0,17.1-4.3,22.4-11.7l97.1-145.6H785.6l-28.3,18.7
		c-4.3,2.7-9.1,4.3-14.4,4.3H340.8L420.3,558.4z"/>
	<path fill="#7DF9FF" d="M498.7,478.4h-2.1c-7.5,0-13.3-5.9-13.3-13.3s5.9-13.3,13.3-13.3h2.1c7.5,0,13.3,5.9,13.3,13.3
		S506.1,478.4,498.7,478.4z"/>
	<path fill="#7DF9FF" d="M549.9,478.4h-2.1c-7.5,0-13.3-5.9-13.3-13.3s5.9-13.3,13.3-13.3h2.1c7.5,0,13.3,5.9,13.3,13.3
		S557.3,478.4,549.9,478.4z"/>
	<path fill="#7DF9FF" d="M600.5,478.4h-2.1c-7.5,0-13.3-5.9-13.3-13.3s5.9-13.3,13.3-13.3h2.1c7.5,0,13.3,5.9,13.3,13.3
		S608,478.4,600.5,478.4z"/>
	<path fill="#7DF9FF" d="M655.5,478.4h-2.1c-7.5,0-13.3-5.9-13.3-13.3s5.9-13.3,13.3-13.3h2.1c7.5,0,13.3,5.9,13.3,13.3
		S662.9,478.4,655.5,478.4z"/>
	<path fill="#7DF9FF" d="M703.5,478.4h-2.1c-7.5,0-13.3-5.9-13.3-13.3s5.9-13.3,13.3-13.3h2.1c7.5,0,13.3,5.9,13.3,13.3
		S710.9,478.4,703.5,478.4z"/>
	<path fill="#7DF9FF" d="M755.2,478.4h-2.1c-7.5,0-13.3-5.9-13.3-13.3s5.9-13.3,13.3-13.3h2.1c7.5,0,13.3,5.9,13.3,13.3
		S762.7,478.4,755.2,478.4z"/>
	<path fill="#7DF9FF" d="M377.6,329.6h-2.1c-7.5,0-13.3-5.9-13.3-13.3s5.9-13.3,13.3-13.3h2.1c7.5,0,13.3,5.9,13.3,13.3
		S384.5,329.6,377.6,329.6z"/>
	<path fill="#7DF9FF" d="M413.9,329.6h-2.1c-7.5,0-13.3-5.9-13.3-13.3s5.9-13.3,13.3-13.3h2.1c7.5,0,13.3,5.9,13.3,13.3
		S421.3,329.6,413.9,329.6z"/>
	<path fill="#7DF9FF" d="M472.5,329.6h-18.1c-7.5,0-13.3-5.9-13.3-13.3s5.9-13.3,13.3-13.3h18.1c7.5,0,13.3,5.9,13.3,13.3
		S480,329.6,472.5,329.6z"/>
	<path fill="#7DF9FF" d="M377.6,379.2h-2.1c-7.5,0-13.3-5.9-13.3-13.3s5.9-13.3,13.3-13.3h2.1c7.5,0,13.3,5.9,13.3,13.3
		S384.5,379.2,377.6,379.2z"/>
	<path fill="#7DF9FF" d="M413.9,379.2h-2.1c-7.5,0-13.3-5.9-13.3-13.3s5.9-13.3,13.3-13.3h2.1c7.5,0,13.3,5.9,13.3,13.3
		S421.3,379.2,413.9,379.2z"/>
	<path fill="#7DF9FF" d="M472.5,379.2h-18.1c-7.5,0-13.3-5.9-13.3-13.3s5.9-13.3,13.3-13.3h18.1c7.5,0,13.3,5.9,13.3,13.3
		S480,379.2,472.5,379.2z"/>
</g>
</svg>
