<?xml version="1.0" encoding="utf-8"?>
<!-- Generator: Adobe Illustrator 17.1.0, SVG Export Plug-In . SVG Version: 6.00 Build 0)  -->
<!DOCTYPE svg PUBLIC "-//W3C//DTD SVG 1.1//EN" "http://www.w3.org/Graphics/SVG/1.1/DTD/svg11.dtd">
<svg version="1.1" id="Слой_1" xmlns="http://www.w3.org/2000/svg" xmlns:xlink="http://www.w3.org/1999/xlink" x="0px" y="0px"
	 viewBox="0 0 615 874" enable-background="new 0 0 615 874" xml:space="preserve">
<g>
	<radialGradient id="SVGID_1_" cx="251.4197" cy="217.272" r="55.7463" gradientUnits="userSpaceOnUse">
		<stop  offset="6.125850e-002" style="stop-color:#7DF9FF"/>
		<stop  offset="0.9948" style="stop-color:#1A99B5;stop-opacity:0"/>
	</radialGradient>
	<path fill="url(#SVGID_1_)" fill-opacity="0.63" d="M301.1,212.9c-4.2-3.6-9.3-5.4-15.3-5.4c-6.1,0-11.3,1.7-15.5,5.2
		c-4.2,3.5-6.7,8.2-7.7,14.3h46.1C307.8,221.1,305.3,216.4,301.1,212.9z"/>
	<radialGradient id="SVGID_2_" cx="-149.8799" cy="437" r="844.2209" gradientUnits="userSpaceOnUse">
		<stop  offset="6.125850e-002" style="stop-color:#7DF9FF"/>
		<stop  offset="0.9948" style="stop-color:#1A99B5;stop-opacity:0"/>
	</radialGradient>
	<path fill="url(#SVGID_2_)" fill-opacity="0.63" d="M0,0v874h615V0H0z M333.8,242.8H263c1.3,5.8,4.3,10.4,9,13.7
		c4.8,3.4,10.7,5,17.7,5c4.9,0,9.2-0.7,12.9-2.1c3.8-1.5,7.4-3.8,10.6-7l14.4,15.7c-8.8,10.1-21.7,15.1-38.6,15.1
		c-10.6,0-19.9-2-28-6.1c-8.1-4.2-14.4-9.9-18.8-17.2s-6.6-15.6-6.6-24.9c0-9.2,2.1-17.4,6.4-24.7c4.4-7.4,10.4-13.2,17.9-17.2
		c7.7-4.2,16.2-6.3,25.6-6.3c9.2,0,17.5,2,24.9,5.9c7.4,3.9,13.2,9.6,17.4,17.1c4.3,7.3,6.4,15.8,6.4,25.6
		C334.3,235.9,334.2,238.3,333.8,242.8z M402.9,282c-3.8,0.9-7.9,1.4-12.2,1.4c-11.1,0-19.8-2.8-25.9-8.5c-6-5.7-9-14-9-25.1v-38.5
		h-14.4v-20.9h14.4v-22.8h27.1v22.8h23.3v20.9h-23.3v38.1c0,3.9,1,7,3,9.2c2.1,2.1,5,3.1,8.7,3.1c4.3,0,7.9-1.2,11-3.5l7.3,19.1
		C410.1,279.4,406.8,281,402.9,282z M586.2,282h-27.1v-49.4c0-7.4-1.6-12.9-4.7-16.5c-3-3.7-7.4-5.6-13-5.6
		c-6.4,0-11.4,2.1-15.1,6.3c-3.7,4.1-5.6,10.1-5.6,18.3v47h-27.1v-49.4c0-14.7-5.9-22.1-17.7-22.1c-6.3,0-11.3,2.1-15,6.3
		c-3.7,4.1-5.6,10.1-5.6,18.3v47H428v-93.6H454v10.8c3.5-3.9,7.7-7,12.7-9c5.1-2.1,10.7-3.1,16.7-3.1c6.6,0,12.6,1.3,17.9,4
		c5.3,2.6,9.6,6.3,12.9,11.3c3.8-4.9,8.6-8.6,14.4-11.3c5.9-2.7,12.4-4,19.3-4c11.7,0,21,3.5,27.8,10.4c7,6.8,10.4,17.2,10.4,31V282
		z"/>
</g>
</svg>
