<?xml version="1.0" encoding="utf-8"?>
<!-- Generator: Adobe Illustrator 17.1.0, SVG Export Plug-In . SVG Version: 6.00 Build 0)  -->
<!DOCTYPE svg PUBLIC "-//W3C//DTD SVG 1.1//EN" "http://www.w3.org/Graphics/SVG/1.1/DTD/svg11.dtd">
<svg version="1.1" id="Слой_1" xmlns="http://www.w3.org/2000/svg" xmlns:xlink="http://www.w3.org/1999/xlink" x="0px" y="0px"
	 viewBox="0 0 1280 800" enable-background="new 0 0 1280 800" xml:space="preserve">
<path fill="#7DF9FF" d="M922.7,117.2C847.2,41.6,746.8,0,639.9,0C533.1,0,432.7,41.6,357.1,117.2S240,293.2,240,400
	s41.6,207.3,117.1,282.8S533.1,800,639.9,800c102.9,0,200.7-39,275.3-109.8c4.7-4.5,4.9-11.9,0.4-16.6c-4.5-4.7-11.9-4.9-16.6-0.4
	c-70.2,66.7-162.3,103.4-259.1,103.4c-100.6,0-195.1-39.2-266.2-110.3S263.4,500.6,263.4,400s39.2-195.1,110.3-266.3
	C444.8,62.6,539.4,23.4,639.9,23.4c100.6,0,195.1,39.2,266.2,110.3s110.3,165.7,110.3,266.3c0,86.3-28.4,167.5-82.1,234.7
	c-4,5.1-3.2,12.4,1.8,16.5c5.1,4,12.4,3.2,16.5-1.8c27.7-34.7,49.2-73.4,64.1-115c15.4-43.1,23.1-88.3,23.1-134.4
	C1039.9,293.2,998.3,192.7,922.7,117.2z"/>
<path fill="#7DF9FF" d="M501.1,260.5c-5.4-3.5-12.7-1.9-16.2,3.5c-19.1,29.7-29.2,64.2-29.2,99.7c0,56,23.4,114.8,69.5,174.7
	c45,58.4,92.3,93,97.6,96.7c5.2,3.7,11.2,5.5,17.3,5.5c6,0,12-1.8,17.2-5.4c45-31.8,162.8-141.2,166.9-264.8
	c1.7-50.7-16.7-98.7-51.6-134.9c-34.8-36.1-81.7-56-132-56.1c-0.2,0-0.3,0-0.5,0c-40.3,0-78.6,12.8-110.7,37
	c-5.2,3.9-6.2,11.2-2.3,16.4c3.9,5.2,11.2,6.2,16.4,2.3c28-21.1,61.4-32.3,96.6-32.3h0.4c44,0.1,84.9,17.5,115.2,49
	c30.5,31.7,46.5,73.5,45.1,117.9c-1.6,49.5-24.5,103.8-66.3,157.3c-34.5,44.2-73.3,76.9-90.8,89.2c-2.2,1.6-5.2,1.6-7.3,0
	c-18-12.8-57.8-46.6-92.6-91.9c-29.5-38.3-64.6-97.3-64.6-160.4c0-31,8.8-61.1,25.5-87C508.1,271.3,506.5,264,501.1,260.5z"/>
<path fill="#7DF9FF" d="M727.1,363.7c0-48-39.1-87.1-87.1-87.1c-48,0-87.1,39.1-87.1,87.1s39.1,87.1,87.1,87.1
	C688,450.8,727.1,411.7,727.1,363.7z M576.2,363.7c0-35.1,28.6-63.7,63.7-63.7c35.1,0,63.7,28.6,63.7,63.7
	c0,35.1-28.6,63.7-63.7,63.7C604.8,427.4,576.2,398.8,576.2,363.7z"/>
</svg>
