<?xml version="1.0" encoding="utf-8"?>
<!-- Generator: Adobe Illustrator 17.1.0, SVG Export Plug-In . SVG Version: 6.00 Build 0)  -->
<!DOCTYPE svg PUBLIC "-//W3C//DTD SVG 1.1//EN" "http://www.w3.org/Graphics/SVG/1.1/DTD/svg11.dtd">
<svg version="1.1" id="Слой_1" xmlns="http://www.w3.org/2000/svg" xmlns:xlink="http://www.w3.org/1999/xlink" x="0px" y="0px"
	 viewBox="0 0 1280 800" enable-background="new 0 0 1280 800" xml:space="preserve">
<path fill="#7DF9FF" d="M922.7,117.2C847.2,41.6,746.8,0,639.9,0c-70.4,0-139.6,18.5-200.2,53.6c-5.6,3.2-7.5,10.4-4.3,16
	c3.2,5.6,10.4,7.5,16,4.3c57-33,122.2-50.5,188.4-50.5c100.6,0,195.1,39.2,266.2,110.3s110.3,165.7,110.3,266.3
	c0,100.6-39.2,195.1-110.3,266.3c-71.1,71.1-165.7,110.3-266.2,110.3c-100.6,0-195.1-39.2-266.2-110.3S263.4,500.6,263.4,400
	c0-116.7,52.8-224.9,144.8-296.8c5.1-4,6-11.4,2-16.4c-4-5.1-11.4-6-16.4-2c-46.8,36.6-85.6,84-112,137.1
	C254.1,277.4,240,337.4,240,400c0,106.8,41.6,207.3,117.1,282.8S533.1,800,639.9,800c106.8,0,207.3-41.6,282.8-117.2
	s117.1-176,117.1-282.8S998.3,192.7,922.7,117.2z"/>
<path fill="#7DF9FF" d="M470.6,548.3h216.9c6.5,0,11.7-5.2,11.7-11.7c0-6.5-5.2-11.7-11.7-11.7H470.6c-12.8,0-23.1-10.4-23.1-23.1
	V298.3c0-3.3,0.7-6.4,2-9.3l172.4,134.8c5.3,4.2,11.7,6.3,18.1,6.3s12.8-2.1,18.1-6.3L830.4,289c1.3,2.8,2,6,2,9.3v203.4
	c0,12.8-10.4,23.1-23.1,23.1h-68.1c-6.5,0-11.7,5.2-11.7,11.7c0,6.5,5.2,11.7,11.7,11.7h68.1c25.7,0,46.6-20.9,46.6-46.6V298.3
	c0-10.8-3.7-20.8-9.9-28.7c-0.4-2.7-1.7-5.3-3.7-7.2c-7.6-6.9-17.5-10.7-27.7-10.7H465.5c-10.2,0-20.1,3.8-27.7,10.7
	c-2.1,1.9-3.4,4.4-3.7,7.2c-6.2,7.9-9.9,17.9-9.9,28.7v203.4C424.1,527.4,445,548.3,470.6,548.3z M809.2,275.2c0.3,0,0.5,0,0.8,0
	L643.6,405.4c-2.1,1.7-5.2,1.7-7.3,0L469.9,275.2c0.3,0,0.5,0,0.8,0L809.2,275.2L809.2,275.2z"/>
</svg>
