<?xml version="1.0" encoding="utf-8"?>
<!-- Generator: Adobe Illustrator 17.1.0, SVG Export Plug-In . SVG Version: 6.00 Build 0)  -->
<!DOCTYPE svg PUBLIC "-//W3C//DTD SVG 1.1//EN" "http://www.w3.org/Graphics/SVG/1.1/DTD/svg11.dtd">
<svg version="1.1" id="Слой_1" xmlns="http://www.w3.org/2000/svg" xmlns:xlink="http://www.w3.org/1999/xlink" x="0px" y="0px"
	 viewBox="0 0 1280 800" enable-background="new 0 0 1280 800" xml:space="preserve">
<path fill="#7DF9FF" d="M922.7,117.2C847.2,41.6,746.8,0,639.9,0C533.1,0,432.7,41.6,357.1,117.2S240,293.2,240,400
	c0,73.5,20.1,145.4,58.2,207.8c3.4,5.5,10.6,7.3,16.1,3.9c5.5-3.4,7.3-10.6,3.9-16.1c-35.8-58.8-54.7-126.4-54.7-195.6
	c0-100.6,39.2-195.1,110.3-266.3S539.4,23.4,639.9,23.4c100.6,0,195.1,39.2,266.2,110.3s110.3,165.7,110.3,266.3
	s-39.2,195.1-110.3,266.3S740.5,776.6,639.9,776.6c-115.5,0-222.9-51.9-294.9-142.4c-4-5.1-11.4-5.9-16.5-1.9
	c-5.1,4-5.9,11.4-1.9,16.5C403.1,744.9,517.3,800,639.9,800c106.8,0,207.3-41.6,282.8-117.2s117.1-176,117.1-282.8
	S998.3,192.7,922.7,117.2z"/>
<path fill="#7DF9FF" d="M575.7,332.2l40.2-30.3c6.3-4.8,9.6-12.6,8.6-20.4c-1.4-10.7-2-21.6-1.8-32.4c0.3-23.2-17.2-43.8-40-47
	l-35-4.9c-23.7-3.3-45.7,3-61.8,17.9c-16.2,14.9-24.3,36.3-22.9,60.2c2.1,36.3,9.3,72.2,21.4,106.6c27,76.8,76.4,142.3,142.7,189.5
	c29.7,21.1,62.1,38,96.5,50c9.2,3.2,18.4,4.8,27.4,4.8c13.1,0,25.7-3.4,36.8-10.2c18.8-11.4,30.9-30.8,34.3-54.5l4.8-34.3
	c3.2-22.8-12.1-46.1-34-52.1c-10.3-2.8-20.5-6.4-30.3-10.6c-7.5-3.2-16.1-2.1-22.6,2.7l-39.9,30c-3.5,2.6-8.3,2.8-11.9,0.3
	c-22.6-15.3-43.1-33.7-60.7-54.7c-4.2-4.9-11.6-5.6-16.5-1.4c-4.9,4.2-5.6,11.6-1.4,16.5c19.1,22.6,41.1,42.5,65.6,59
	c11.9,8,27.6,7.6,39.1-1l39.6-29.8c10.7,4.6,21.8,8.4,33,11.5c10.6,2.9,18.6,15.2,17,26.3l-4.8,34.3c-2.3,16.6-10.6,30-23.2,37.7
	c-12.7,7.7-28.4,8.9-44.3,3.3c-32.3-11.3-62.8-27.2-90.7-47c-62.4-44.4-108.7-106-134.1-178.2c-11.4-32.3-18.1-66-20.1-100.1
	c-1-16.8,4.5-31.6,15.4-41.6c10.9-10,26-14.3,42.7-11.9l35,4.9c10.9,1.5,20,12.3,19.8,23.5c-0.2,11.6,0.5,23.3,1.9,34.9l-39.6,29.8
	c-11.5,8.7-16.2,23.6-11.8,37.3c6.8,21,15.9,41.4,27,60.6c3.2,5.6,10.4,7.5,16,4.3c5.6-3.2,7.5-10.4,4.3-16
	c-10.2-17.8-18.7-36.7-25-56.2C570.8,339.4,572.2,334.9,575.7,332.2z"/>
</svg>
