<svg width="1036" height="177" viewBox="0 0 1036 176" fill="none" xmlns="http://www.w3.org/2000/svg">
<path fill-rule="evenodd" clip-rule="evenodd" d="M0 159.382L43.1667 156.514C86.3333 153.236 172.667 147.5 259 129.882C345.333 112.264 431.667 82.7639 518 76.6181C604.333 70.8819 690.667 88.5 777 79.4861C863.333 70.8819 949.667 35.2361 992.833 17.6181L1036 0V177H992.833C949.667 177 863.333 177 777 177C690.667 177 604.333 177 518 177C431.667 177 345.333 177 259 177C172.667 177 86.3333 177 43.1667 177H0V159.382Z" fill="#010612"/>
</svg>
